# xmcd
#
# Track frame offsets:
# 150
# 14652
# 25966
# 39723
# 50293
# 65238
# 78993
# 93291
# 111271
# 123393
# 139376
# 150319
# 163983
# 181492
# 196493
# 213675
#
# Disc length: 3056 seconds
#
#
# Revision: 0
# Processed by: cddbd v1.5PL3 Copyright (c) Steve Scherf et al.
# Submitted via: FreeRIP 2.53 
#
DISCID=eb0bee10
DTITLE=Skaggs, Ricky - 16 Biggest Hits
DYEAR=1900
DGENRE=
TTITLE0=Don't Get Above Your Raising
TTITLE1=You May See Me Walkin'
TTITLE2=Crying My Heart Out Over You
TTITLE3=I Don't Care
TTITLE4=Heartbroke
TTITLE5=I Wouldn't Change You If I Could
TTITLE6=Highway 40 Blues
TTITLE7=You've Got A Lover
TTITLE8=Don't cheat In Our Hometown
TTITLE9=Honey(Open That Door)
TTITLE10=Uncle Pen
TTITLE11=Something In My Heart
TTITLE12=Country Boy
TTITLE13=Wheel Hoss
TTITLE14=Cajun Moon
TTITLE15=Lovin' Only
EXTD=
EXTT0=
EXTT1=
EXTT2=
EXTT3=
EXTT4=
EXTT5=
EXTT6=
EXTT7=
EXTT8=
EXTT9=
EXTT10=
EXTT11=
EXTT12=
EXTT13=
EXTT14=
EXTT15=
PLAYORDER=
